<svg width="181" height="49" viewBox="0 0 181 49" fill="orange" xmlns="http://www.w3.org/2000/svg">
<path d="M53.1724 18.72V21.132H53.2804C53.4964 20.796 53.7724 20.46 54.1084 20.124C54.4684 19.764 54.9004 19.452 55.4044 19.188C55.9084 18.9 56.4724 18.672 57.0964 18.504C57.7444 18.312 58.4644 18.216 59.2564 18.216C60.4804 18.216 61.6084 18.456 62.6404 18.936C63.6724 19.392 64.5604 20.028 65.3044 20.844C66.0484 21.66 66.6244 22.62 67.0324 23.724C67.4404 24.828 67.6444 26.016 67.6444 27.288C67.6444 28.56 67.4404 29.76 67.0324 30.888C66.6484 31.992 66.0844 32.964 65.3404 33.804C64.6204 34.62 63.7324 35.28 62.6764 35.784C61.6444 36.264 60.4684 36.504 59.1484 36.504C57.9244 36.504 56.7964 36.252 55.7644 35.748C54.7564 35.244 53.9764 34.56 53.4244 33.696H53.3524V44.64H49.0324V18.72H53.1724ZM63.2524 27.288C63.2524 26.616 63.1444 25.956 62.9284 25.308C62.7364 24.636 62.4364 24.036 62.0284 23.508C61.6204 22.98 61.1044 22.56 60.4804 22.248C59.8564 21.912 59.1244 21.744 58.2844 21.744C57.4924 21.744 56.7844 21.912 56.1604 22.248C55.5364 22.584 54.9964 23.016 54.5404 23.544C54.1084 24.072 53.7724 24.672 53.5324 25.344C53.3164 26.016 53.2084 26.688 53.2084 27.36C53.2084 28.032 53.3164 28.704 53.5324 29.376C53.7724 30.024 54.1084 30.612 54.5404 31.14C54.9964 31.668 55.5364 32.1 56.1604 32.436C56.7844 32.748 57.4924 32.904 58.2844 32.904C59.1244 32.904 59.8564 32.736 60.4804 32.4C61.1044 32.064 61.6204 31.632 62.0284 31.104C62.4364 30.576 62.7364 29.976 62.9284 29.304C63.1444 28.632 63.2524 27.96 63.2524 27.288ZM82.5417 33.804H82.4337C82.0017 34.572 81.3057 35.208 80.3457 35.712C79.3857 36.192 78.2937 36.432 77.0697 36.432C76.3737 36.432 75.6417 36.336 74.8737 36.144C74.1297 35.976 73.4337 35.688 72.7857 35.28C72.1617 34.848 71.6337 34.296 71.2017 33.624C70.7937 32.928 70.5897 32.076 70.5897 31.068C70.5897 29.772 70.9497 28.74 71.6697 27.972C72.4137 27.204 73.3617 26.616 74.5137 26.208C75.6657 25.8 76.9377 25.536 78.3297 25.416C79.7457 25.272 81.1257 25.2 82.4697 25.2V24.768C82.4697 23.688 82.0737 22.896 81.2817 22.392C80.5137 21.864 79.5897 21.6 78.5097 21.6C77.5977 21.6 76.7217 21.792 75.8817 22.176C75.0417 22.56 74.3457 23.028 73.7937 23.58L71.5617 20.952C72.5457 20.04 73.6737 19.356 74.9457 18.9C76.2417 18.444 77.5497 18.216 78.8697 18.216C80.4057 18.216 81.6657 18.432 82.6497 18.864C83.6577 19.296 84.4497 19.86 85.0257 20.556C85.6017 21.252 85.9977 22.032 86.2137 22.896C86.4537 23.76 86.5737 24.624 86.5737 25.488V36H82.5417V33.804ZM82.4697 28.116H81.4977C80.8017 28.116 80.0697 28.152 79.3017 28.224C78.5337 28.272 77.8257 28.404 77.1777 28.62C76.5297 28.812 75.9897 29.1 75.5577 29.484C75.1257 29.844 74.9097 30.348 74.9097 30.996C74.9097 31.404 74.9937 31.752 75.1617 32.04C75.3537 32.304 75.5937 32.52 75.8817 32.688C76.1697 32.856 76.4937 32.976 76.8537 33.048C77.2137 33.12 77.5737 33.156 77.9337 33.156C79.4217 33.156 80.5497 32.76 81.3177 31.968C82.0857 31.176 82.4697 30.096 82.4697 28.728V28.116ZM89.0146 18.72H93.8026L98.6266 31.284H98.6986L102.983 18.72H107.483L99.3106 39.708C98.9986 40.5 98.6626 41.196 98.3026 41.796C97.9426 42.42 97.5106 42.936 97.0066 43.344C96.5026 43.776 95.9026 44.1 95.2066 44.316C94.5346 44.532 93.7186 44.64 92.7586 44.64C92.3986 44.64 92.0266 44.616 91.6426 44.568C91.2826 44.544 90.9106 44.484 90.5266 44.388L90.8866 40.644C91.1746 40.74 91.4506 40.8 91.7146 40.824C92.0026 40.872 92.2666 40.896 92.5066 40.896C92.9626 40.896 93.3466 40.836 93.6586 40.716C93.9706 40.62 94.2346 40.452 94.4506 40.212C94.6666 39.996 94.8586 39.72 95.0266 39.384C95.1946 39.048 95.3746 38.652 95.5666 38.196L96.4306 36L89.0146 18.72ZM121.872 23.508C121.536 23.028 121.032 22.632 120.36 22.32C119.688 21.984 119.004 21.816 118.308 21.816C117.516 21.816 116.82 21.984 116.22 22.32C115.62 22.632 115.116 23.052 114.708 23.58C114.324 24.108 114.036 24.708 113.844 25.38C113.652 26.028 113.556 26.688 113.556 27.36C113.556 28.032 113.652 28.704 113.844 29.376C114.06 30.024 114.372 30.612 114.78 31.14C115.188 31.668 115.692 32.1 116.292 32.436C116.916 32.748 117.636 32.904 118.452 32.904C119.124 32.904 119.796 32.772 120.468 32.508C121.14 32.244 121.68 31.86 122.088 31.356L124.788 34.092C124.068 34.86 123.144 35.46 122.016 35.892C120.912 36.3 119.712 36.504 118.416 36.504C117.144 36.504 115.932 36.3 114.78 35.892C113.652 35.484 112.656 34.884 111.792 34.092C110.952 33.3 110.28 32.34 109.776 31.212C109.296 30.084 109.056 28.8 109.056 27.36C109.056 25.968 109.296 24.708 109.776 23.58C110.28 22.452 110.952 21.492 111.792 20.7C112.632 19.908 113.604 19.296 114.708 18.864C115.836 18.432 117.036 18.216 118.308 18.216C119.58 18.216 120.804 18.456 121.98 18.936C123.18 19.416 124.128 20.076 124.824 20.916L121.872 23.508ZM138.37 33.804H138.262C137.83 34.572 137.134 35.208 136.174 35.712C135.214 36.192 134.122 36.432 132.898 36.432C132.202 36.432 131.47 36.336 130.702 36.144C129.958 35.976 129.262 35.688 128.614 35.28C127.99 34.848 127.462 34.296 127.03 33.624C126.622 32.928 126.418 32.076 126.418 31.068C126.418 29.772 126.778 28.74 127.498 27.972C128.242 27.204 129.19 26.616 130.342 26.208C131.494 25.8 132.766 25.536 134.158 25.416C135.574 25.272 136.954 25.2 138.298 25.2V24.768C138.298 23.688 137.902 22.896 137.11 22.392C136.342 21.864 135.418 21.6 134.338 21.6C133.426 21.6 132.55 21.792 131.71 22.176C130.87 22.56 130.174 23.028 129.622 23.58L127.39 20.952C128.374 20.04 129.502 19.356 130.774 18.9C132.07 18.444 133.378 18.216 134.698 18.216C136.234 18.216 137.494 18.432 138.478 18.864C139.486 19.296 140.278 19.86 140.854 20.556C141.43 21.252 141.826 22.032 142.042 22.896C142.282 23.76 142.402 24.624 142.402 25.488V36H138.37V33.804ZM138.298 28.116H137.326C136.63 28.116 135.898 28.152 135.13 28.224C134.362 28.272 133.654 28.404 133.006 28.62C132.358 28.812 131.818 29.1 131.386 29.484C130.954 29.844 130.738 30.348 130.738 30.996C130.738 31.404 130.822 31.752 130.99 32.04C131.182 32.304 131.422 32.52 131.71 32.688C131.998 32.856 132.322 32.976 132.682 33.048C133.042 33.12 133.402 33.156 133.762 33.156C135.25 33.156 136.378 32.76 137.146 31.968C137.914 31.176 138.298 30.096 138.298 28.728V28.116ZM147.435 18.72H151.575V21.6H151.647C152.127 20.592 152.799 19.776 153.663 19.152C154.527 18.528 155.535 18.216 156.687 18.216C156.855 18.216 157.035 18.228 157.227 18.252C157.419 18.252 157.587 18.276 157.731 18.324V22.284C157.443 22.212 157.191 22.164 156.975 22.14C156.783 22.116 156.591 22.104 156.399 22.104C155.415 22.104 154.623 22.284 154.023 22.644C153.423 23.004 152.955 23.436 152.619 23.94C152.283 24.444 152.055 24.96 151.935 25.488C151.815 26.016 151.755 26.436 151.755 26.748V36H147.435V18.72ZM177.483 36H173.379V33.408H173.307C172.707 34.416 171.867 35.184 170.787 35.712C169.731 36.24 168.591 36.504 167.367 36.504C166.047 36.504 164.859 36.264 163.803 35.784C162.771 35.28 161.883 34.62 161.139 33.804C160.419 32.964 159.855 31.992 159.447 30.888C159.063 29.76 158.871 28.56 158.871 27.288C158.871 26.016 159.075 24.828 159.483 23.724C159.891 22.62 160.467 21.66 161.211 20.844C161.955 20.028 162.843 19.392 163.875 18.936C164.907 18.456 166.035 18.216 167.259 18.216C168.051 18.216 168.759 18.312 169.383 18.504C170.007 18.672 170.547 18.888 171.003 19.152C171.483 19.416 171.891 19.704 172.227 20.016C172.563 20.328 172.839 20.628 173.055 20.916H173.163V8.784H177.483V36ZM163.263 27.288C163.263 27.96 163.359 28.632 163.551 29.304C163.767 29.976 164.079 30.576 164.487 31.104C164.895 31.632 165.411 32.064 166.035 32.4C166.659 32.736 167.391 32.904 168.231 32.904C169.023 32.904 169.731 32.748 170.355 32.436C170.979 32.1 171.507 31.668 171.939 31.14C172.395 30.612 172.731 30.024 172.947 29.376C173.187 28.704 173.307 28.032 173.307 27.36C173.307 26.688 173.187 26.016 172.947 25.344C172.731 24.672 172.395 24.072 171.939 23.544C171.507 23.016 170.979 22.584 170.355 22.248C169.731 21.912 169.023 21.744 168.231 21.744C167.391 21.744 166.659 21.912 166.035 22.248C165.411 22.56 164.895 22.98 164.487 23.508C164.079 24.036 163.767 24.636 163.551 25.308C163.359 25.956 163.263 26.616 163.263 27.288Z" fill="#545252"/>
<path d="M18.1735 12.1697C19.7356 10.6076 22.2683 10.6076 23.8304 12.1697L31.2959 19.6352C32.8708 21.2101 31.7554 23.903 29.5281 23.903L21.002 23.903L12.4758 23.903C10.2485 23.903 9.13313 21.2101 10.708 19.6352L18.1735 12.1697Z" fill="#545252"/>
<path d="M16.6828 39.0683C15.5113 40.2399 13.6118 40.2399 12.4402 39.0683L4.97472 31.6029C4.02977 30.6579 4.69902 29.0422 6.03538 29.0422L14.5615 29.0422L23.0877 29.0422C24.424 29.0422 25.0933 30.6579 24.1483 31.6029L16.6828 39.0683Z" stroke="white" stroke-width="2"/>
</svg>
